<svg width="10" height="11" viewBox="0 0 10 11" fill="none" xmlns="http://www.w3.org/2000/svg">
<path d="M1.316 1.292H0.518V0.143999H2.814V5.072H1.316V1.292ZM8.218 0.199999L2.926 10H1.05L6.328 0.199999H8.218ZM7.434 8.824H9.842V10.014H5.824V8.894L7.42 7.816C7.70933 7.62 7.924 7.42867 8.064 7.242C8.21333 7.046 8.288 6.84533 8.288 6.64C8.288 6.472 8.24133 6.33667 8.148 6.234C8.05467 6.13133 7.93333 6.08 7.784 6.08C7.49467 6.08 7.32667 6.25267 7.28 6.598H5.768C5.796 6.11267 5.99667 5.72067 6.37 5.422C6.74333 5.12333 7.252 4.974 7.896 4.974C8.30667 4.974 8.66133 5.04867 8.96 5.198C9.25867 5.34733 9.48267 5.54333 9.632 5.786C9.79067 6.01933 9.87 6.27133 9.87 6.542C9.87 6.878 9.758 7.17667 9.534 7.438C9.31 7.69 8.932 7.97 8.4 8.278L7.434 8.824Z" fill="#A7B5CA"/>
</svg>
