<svg width="21" height="20" viewBox="0 0 21 20" fill="none" xmlns="http://www.w3.org/2000/svg">
<path d="M18.9009 10.6594C18.7406 10.4769 18.6521 10.2423 18.6521 9.99941C18.6521 9.7565 18.7406 9.5219 18.9009 9.33941L20.1809 7.89941C20.3219 7.74208 20.4095 7.54411 20.4311 7.33391C20.4526 7.12372 20.407 6.91209 20.3009 6.72941L18.3009 3.26941C18.1958 3.08693 18.0358 2.94228 17.8436 2.85609C17.6515 2.7699 17.437 2.74656 17.2309 2.78941L15.3509 3.16941C15.1117 3.21884 14.8626 3.179 14.6508 3.05741C14.4389 2.93582 14.2789 2.74089 14.2009 2.50941L13.5909 0.679407C13.5238 0.480786 13.396 0.308272 13.2255 0.186249C13.055 0.0642258 12.8505 -0.00113433 12.6409 -0.000593167H8.64087C8.42281 -0.0119752 8.20701 0.0483332 8.02644 0.171121C7.84587 0.293909 7.71045 0.472426 7.64087 0.679407L7.08087 2.50941C7.00287 2.74089 6.84284 2.93582 6.63099 3.05741C6.41913 3.179 6.17009 3.21884 5.93087 3.16941L4.00087 2.78941C3.80542 2.76179 3.60617 2.79263 3.42822 2.87805C3.25027 2.96346 3.10157 3.09964 3.00087 3.26941L1.00087 6.72941C0.892033 6.91006 0.843095 7.12049 0.861055 7.33063C0.879016 7.54077 0.962955 7.73985 1.10087 7.89941L2.37087 9.33941C2.53119 9.5219 2.61961 9.7565 2.61961 9.99941C2.61961 10.2423 2.53119 10.4769 2.37087 10.6594L1.10087 12.0994C0.962955 12.259 0.879016 12.458 0.861055 12.6682C0.843095 12.8783 0.892033 13.0888 1.00087 13.2694L3.00087 16.7294C3.10597 16.9119 3.26599 17.0565 3.45812 17.1427C3.65026 17.2289 3.8647 17.2522 4.07087 17.2094L5.95087 16.8294C6.19009 16.78 6.43913 16.8198 6.65099 16.9414C6.86284 17.063 7.02287 17.2579 7.10087 17.4894L7.71087 19.3194C7.78045 19.5264 7.91587 19.7049 8.09644 19.8277C8.27701 19.9505 8.49281 20.0108 8.71087 19.9994H12.7109C12.9205 19.9999 13.125 19.9346 13.2955 19.8126C13.466 19.6905 13.5938 19.518 13.6609 19.3194L14.2709 17.4894C14.3489 17.2579 14.5089 17.063 14.7208 16.9414C14.9326 16.8198 15.1817 16.78 15.4209 16.8294L17.3009 17.2094C17.507 17.2522 17.7215 17.2289 17.9136 17.1427C18.1058 17.0565 18.2658 16.9119 18.3709 16.7294L20.3709 13.2694C20.477 13.0867 20.5226 12.8751 20.5011 12.6649C20.4795 12.4547 20.3919 12.2567 20.2509 12.0994L18.9009 10.6594ZM17.4109 11.9994L18.2109 12.8994L16.9309 15.1194L15.7509 14.8794C15.0307 14.7322 14.2814 14.8545 13.6455 15.2232C13.0095 15.5919 12.531 16.1812 12.3009 16.8794L11.9209 17.9994H9.36087L9.00087 16.8594C8.77073 16.1612 8.29225 15.5719 7.65628 15.2032C7.0203 14.8345 6.27109 14.7122 5.55087 14.8594L4.37087 15.0994L3.07087 12.8894L3.87087 11.9894C4.36283 11.4394 4.6348 10.7273 4.6348 9.98941C4.6348 9.25147 4.36283 8.53943 3.87087 7.98941L3.07087 7.08941L4.35087 4.88941L5.53087 5.12941C6.25109 5.27663 7.0003 5.15429 7.63628 4.78561C8.27225 4.41692 8.75073 3.82757 8.98087 3.12941L9.36087 1.99941H11.9209L12.3009 3.13941C12.531 3.83757 13.0095 4.42692 13.6455 4.79561C14.2814 5.16429 15.0307 5.28663 15.7509 5.13941L16.9309 4.89941L18.2109 7.11941L17.4109 8.01941C16.9244 8.56817 16.6558 9.27609 16.6558 10.0094C16.6558 10.7427 16.9244 11.4506 17.4109 11.9994ZM10.6409 5.99941C9.84975 5.99941 9.07639 6.234 8.41859 6.67353C7.76079 7.11305 7.24811 7.73777 6.94535 8.46867C6.6426 9.19958 6.56339 10.0038 6.71773 10.7798C6.87207 11.5557 7.25304 12.2684 7.81245 12.8278C8.37186 13.3872 9.08459 13.7682 9.86051 13.9225C10.6364 14.0769 11.4407 13.9977 12.1716 13.6949C12.9025 13.3922 13.5272 12.8795 13.9668 12.2217C14.4063 11.5639 14.6409 10.7905 14.6409 9.99941C14.6409 8.93854 14.2194 7.92112 13.4693 7.17098C12.7192 6.42083 11.7017 5.99941 10.6409 5.99941ZM10.6409 11.9994C10.2453 11.9994 9.85863 11.8821 9.52973 11.6623C9.20083 11.4426 8.94449 11.1302 8.79311 10.7648C8.64174 10.3993 8.60213 9.99719 8.6793 9.60923C8.75647 9.22126 8.94695 8.8649 9.22666 8.58519C9.50636 8.30549 9.86273 8.11501 10.2507 8.03784C10.6387 7.96067 11.0408 8.00027 11.4062 8.15165C11.7717 8.30302 12.084 8.55937 12.3038 8.88827C12.5236 9.21716 12.6409 9.60384 12.6409 9.99941C12.6409 10.5298 12.4302 11.0385 12.0551 11.4136C11.68 11.7887 11.1713 11.9994 10.6409 11.9994Z" fill="white"/>
</svg>
